<?xml version="1.0" encoding="UTF-8" standalone="no"?>
<!-- Created with Inkscape (http://www.inkscape.org/) -->

<svg
   xmlns:dc="http://purl.org/dc/elements/1.1/"
   xmlns:cc="http://creativecommons.org/ns#"
   xmlns:rdf="http://www.w3.org/1999/02/22-rdf-syntax-ns#"
   xmlns:svg="http://www.w3.org/2000/svg"
   xmlns="http://www.w3.org/2000/svg"
   xmlns:sodipodi="http://sodipodi.sourceforge.net/DTD/sodipodi-0.dtd"
   xmlns:inkscape="http://www.inkscape.org/namespaces/inkscape"
   width="200"
   height="200"
   id="svg1920"
   sodipodi:version="0.32"
   inkscape:version="0.48.4 r9939"
   sodipodi:docname="freecell_solver.svg"
   inkscape:output_extension="org.inkscape.output.svg.inkscape"
   version="1.0"
   sodipodi:modified="true">
  <defs
     id="defs1922" />
  <sodipodi:namedview
     id="base"
     pagecolor="#ffffff"
     bordercolor="#666666"
     borderopacity="1.0"
     inkscape:pageopacity="0.0"
     inkscape:pageshadow="2"
     inkscape:zoom="1"
     inkscape:cx="197.31943"
     inkscape:cy="180"
     inkscape:document-units="px"
     inkscape:current-layer="layer1"
     inkscape:window-width="959"
     inkscape:window-height="786"
     inkscape:window-x="342"
     inkscape:window-y="48"
     width="200px"
     height="200px"
     showgrid="false"
     inkscape:window-maximized="0" />
  <metadata
     id="metadata1925">
    <rdf:RDF>
      <cc:Work
         rdf:about="">
        <dc:format>image/svg+xml</dc:format>
        <dc:type
           rdf:resource="http://purl.org/dc/dcmitype/StillImage" />
        <dc:title></dc:title>
      </cc:Work>
    </rdf:RDF>
  </metadata>
  <g
     inkscape:label="Livello 1"
     inkscape:groupmode="layer"
     id="layer1"
     transform="translate(-195.5937,-384.5002)">
    <g
       id="g2991"
       transform="translate(-27,-57)"
       inkscape:export-xdpi="70.146141"
       inkscape:export-ydpi="70.146141"
       inkscape:export-filename="/home/shlomif/Docs/Images/freecell-solver/70x-height.png">
      <path
         id="path1939"
         d="m 563.01302,445.82266 c -1.2187,5.06258 -3.0937,9.60945 -5.625,13.59375 -2.53119,3.98444 -7.03901,8.8985 -13.53125,14.78125 -6.49214,5.88287 -10.6093,10.39067 -12.34375,13.53125 -1.73429,3.14066 -2.59369,6.32816 -2.59375,9.5625 8e-5,4.50003 1.50006,8.25002 4.5,11.25 3.00008,3.00002 6.65631,4.50001 10.96875,4.5 7.71991,-1e-5 13.69091,-5.6368 17.625,-11.78125 -0.29894,6.71846 -1.40595,12.0971 -3.34375,16.125 -2.08588,4.33593 -5.27981,7.92398 -9.59375,10.78125 -2.90481,1.92395 -8.14055,3.60938 -15.6875,5.0625 l -0.5625,2.40625 30.15625,0 30.1875,0 -0.5625,-2.40625 c -7.54696,-1.45313 -12.7827,-3.13855 -15.6875,-5.0625 -4.31394,-2.85729 -7.50786,-6.44531 -9.59375,-10.78125 -1.93491,-4.0219 -3.04283,-9.38931 -3.34375,-16.09375 3.93435,6.13587 9.94555,11.74999 17.65625,11.75 4.31245,10e-6 7.96867,-1.49998 10.96875,-4.5 2.99991,-2.99998 4.49992,-6.74997 4.5,-11.25 -9e-5,-3.23434 -0.85946,-6.42184 -2.59375,-9.5625 -1.73447,-3.14058 -5.85162,-7.64838 -12.34375,-13.53125 -6.49223,-5.88275 -11.00005,-10.79681 -13.53125,-14.78125 -2.53129,-3.9843 -4.40629,-8.53117 -5.625,-13.59375 z"
         style="font-size:144px;font-style:normal;font-weight:normal;fill:#000000;fill-opacity:1;stroke:none;font-family:Bitstream Vera Sans"
         inkscape:connector-curvature="0" />
      <path
         id="path1937"
         d="m 364.82372,445.82266 c -5.53118,7e-5 -10.164,1.85946 -13.9375,5.5625 -3.77337,3.70319 -5.65618,8.10944 -5.65625,13.21875 7e-5,4.17192 1.60944,8.5313 4.84375,13.125 -2.80185,-2.33453 -5.59548,-3.71875 -10.90625,-3.71875 -10.39121,-10e-6 -17.84375,8.52979 -17.84375,19.1875 -2e-5,11.30109 8.24766,19.90626 19.25,19.90625 11.0157,-2e-5 19.28177,-7.51392 23.34375,-16.65625 -0.18745,7.45313 -1.32027,13.35159 -3.40625,17.6875 -2.08587,4.33595 -5.28118,7.92188 -9.59375,10.78125 -2.90618,1.92187 -8.14055,3.60938 -15.6875,5.0625 l -0.5625,2.40625 30.15625,0 30.1875,0 -0.5625,-2.40625 c -7.54694,-1.45312 -12.78132,-3.14063 -15.6875,-5.0625 -4.31256,-2.85937 -7.50786,-6.4453 -9.59375,-10.78125 -2.08598,-4.33591 -3.21881,-10.23437 -3.40625,-17.6875 4.06198,9.14233 12.32804,16.65623 23.34375,16.65625 11.00235,10e-6 19.25002,-8.60516 19.25,-19.90625 0,-10.65771 -7.45254,-19.18751 -17.84375,-19.1875 -5.31077,0 -8.1044,1.38422 -10.90625,3.71875 3.23431,-4.5937 4.8437,-8.95308 4.84375,-13.125 -6e-5,-5.10931 -1.88288,-9.51556 -5.65625,-13.21875 -3.7735,-3.70304 -8.43756,-5.56243 -13.96875,-5.5625 z"
         style="font-size:144px;font-style:normal;font-weight:normal;fill:#000000;fill-opacity:1;stroke:none;font-family:Bitstream Vera Sans"
         inkscape:connector-curvature="0" />
      <path
         id="path1935"
         d="m 265.89312,534.06486 c -1.45317,-5.53125 -3.52738,-10.72265 -6.22266,-15.57422 -2.69534,-4.85155 -7.91018,-12.38671 -15.64453,-22.60548 -5.67189,-7.49995 -9.16406,-12.25777 -10.47656,-14.27344 -2.15625,-3.2812 -3.71485,-6.29291 -4.67577,-9.03516 -0.96096,-2.74212 -1.44142,-5.51946 -1.44142,-8.33202 0,-5.20306 1.73438,-9.56242 5.20313,-13.07813 3.46873,-3.51553 7.75779,-5.27335 12.86718,-5.27344 5.15623,9e-5 9.63279,1.82822 13.42969,5.48438 2.85934,2.71882 5.17965,6.77351 6.96094,12.16406 1.54683,-5.2968 3.72652,-9.32805 6.53906,-12.09375 3.89058,-3.74991 8.39058,-5.62491 13.5,-5.625 5.06243,9e-5 9.3515,1.74618 12.86719,5.23828 3.51554,3.49226 5.27337,7.65242 5.27344,12.48047 -8e-5,4.21882 -1.03133,8.61334 -3.09375,13.18359 -2.06258,4.57037 -6.04695,10.55864 -11.95313,17.96485 -7.68756,9.70315 -13.28911,17.6719 -16.80469,23.90625 -2.76567,4.92188 -4.87504,10.07812 -6.32812,15.46875 l 0,0 z"
         style="font-size:144px;font-style:normal;font-weight:normal;fill:#d40000;fill-opacity:1;stroke:none;font-family:Bitstream Vera Sans"
         inkscape:connector-curvature="0" />
      <path
         id="text1928"
         d="m 463.92617,445.82267 c -9.49157,15.5815 -20.38672,30.28404 -32.34375,44.06249 11.96862,13.77165 23.04852,28.43719 32.34375,44.15625 9.29523,-15.71906 20.37513,-30.3846 32.34375,-44.15625 -11.95703,-13.77845 -22.85218,-28.48099 -32.34375,-44.0625 z"
         style="font-size:144px;font-style:normal;font-weight:normal;fill:#d40000;fill-opacity:1;stroke:none;font-family:Bitstream Vera Sans"
         inkscape:connector-curvature="0" />
    </g>
  </g>
</svg>
